<?xml version="1.0" encoding="UTF-8" standalone="no"?>
<svg width="23px" height="23px" viewBox="0 0 23 23" version="1.1" xmlns="http://www.w3.org/2000/svg" xmlns:xlink="http://www.w3.org/1999/xlink">
    <!-- Generator: Sketch 40.1 (33804) - http://www.bohemiancoding.com/sketch -->
    <title>mag_icon</title>
    <desc>Created with Sketch.</desc>
    <defs></defs>
    <g id="Page-1" stroke="none" stroke-width="1" fill="none" fill-rule="evenodd">
        <g id="Mobile-Portrait" transform="translate(-279.000000, -82.000000)" fill="#000000">
            <path d="M299.328531,104.603436 C299.557129,104.832035 300.075284,104.671891 300.493645,104.25353 L301.25353,103.493645 C301.67537,103.071805 301.82855,102.553644 301.603436,102.328531 C301.603436,102.328531 293.718615,94.4845365 293.633424,94.4733224 C294.496203,93.1964265 295,91.6570473 295,90 C295,85.581722 291.418278,82 287,82 C282.581722,82 279,85.581722 279,90 C279,94.418278 282.581722,98 287,98 C288.657339,98 290.196968,97.4960257 291.473996,96.6329688 C291.48501,96.7187455 299.328531,104.603436 299.328531,104.603436 Z M281.5,90 C281.5,86.9624339 283.962434,84.5 287,84.5 C290.037566,84.5 292.5,86.9624339 292.5,90 C292.5,93.0375661 290.037566,95.5 287,95.5 C283.962434,95.5 281.5,93.0375661 281.5,90 L281.5,90 Z" id="mag_icon"></path>
        </g>
    </g>
</svg>